<svg id="Layer_1" data-name="Layer 1" xmlns="http://www.w3.org/2000/svg" viewBox="0 0 300 72.87"><defs><style>.cls-1,.cls-3{fill:#fff;}.cls-2{fill:#d7153a;}.cls-3{fill-rule:evenodd;}</style></defs><title>TAFE-NSW-RED-WARATAH-REV-KEYLINE-RGB</title><path class="cls-1" d="M275.14,318.93v0a3.11,3.11,0,0,1,3.15-3.16,3.31,3.31,0,0,1,2.35.83l-.68.81a2.4,2.4,0,0,0-1.71-.65,2.06,2.06,0,0,0-2,2.15v0a2,2,0,0,0,2.07,2.18,2.51,2.51,0,0,0,1.48-.46v-1.15h-1.56v-.93h2.6v2.56a3.9,3.9,0,0,1-2.55,1,3,3,0,0,1-3.17-3.14" transform="translate(-272.3 -249.31)"/><path class="cls-1" d="M281.5,318.93v0a3.13,3.13,0,0,1,3.21-3.16,3.1,3.1,0,0,1,3.18,3.14v0a3.2,3.2,0,0,1-6.39,0m5.26,0v0a2.08,2.08,0,0,0-2.07-2.17,2.05,2.05,0,0,0-2.06,2.15v0a2.09,2.09,0,0,0,2.08,2.17,2.06,2.06,0,0,0,2.05-2.15" transform="translate(-272.3 -249.31)"/><polygon class="cls-1" points="15.51 66.54 16.7 66.54 18.54 71.24 20.37 66.54 21.53 66.54 18.99 72.69 18.05 72.69 15.51 66.54"/><polygon class="cls-1" points="22.25 66.54 26.78 66.54 26.78 67.5 23.33 67.5 23.33 69.09 26.39 69.09 26.39 70.05 23.33 70.05 23.33 71.69 26.82 71.69 26.82 72.65 22.25 72.65 22.25 66.54"/><path class="cls-1" d="M300.16,315.85h2.72a2.47,2.47,0,0,1,1.77.62,1.84,1.84,0,0,1,.5,1.31v0a1.83,1.83,0,0,1-1.45,1.85l1.64,2.31h-1.26l-1.5-2.13h-1.34V322h-1.08Zm2.65,3c.76,0,1.25-.4,1.25-1v0c0-.65-.47-1-1.26-1h-1.56v2.05Z" transform="translate(-272.3 -249.31)"/><polygon class="cls-1" points="33.8 66.54 34.79 66.54 38.06 70.76 38.06 66.54 39.12 66.54 39.12 72.65 38.22 72.65 34.85 68.3 34.85 72.65 33.8 72.65 33.8 66.54"/><polygon class="cls-1" points="40.21 66.54 41.35 66.54 43.21 69.43 45.07 66.54 46.21 66.54 46.21 72.65 45.14 72.65 45.14 68.27 43.21 71.15 43.17 71.15 41.27 68.29 41.27 72.65 40.21 72.65 40.21 66.54"/><polygon class="cls-1" points="47.23 66.54 51.76 66.54 51.76 67.5 48.3 67.5 48.3 69.09 51.37 69.09 51.37 70.05 48.3 70.05 48.3 71.69 51.8 71.69 51.8 72.65 47.23 72.65 47.23 66.54"/><polygon class="cls-1" points="52.86 66.54 53.85 66.54 57.12 70.76 57.12 66.54 58.18 66.54 58.18 72.65 57.28 72.65 53.91 68.3 53.91 72.65 52.86 72.65 52.86 66.54"/><polygon class="cls-1" points="60.96 67.54 59.03 67.54 59.03 66.54 63.98 66.54 63.98 67.54 62.05 67.54 62.05 72.65 60.96 72.65 60.96 67.54"/><path class="cls-1" d="M290.89,305.75l-10.73-12.6h-4.54v19.73H280V300.3l10.7,12.58h4.58V293.15h-4.43Zm42.52-12.6-2.94,12.63-3.08-12.63h-4.25L320,305.64l-2.85-12.49h-4.64l5.13,19.72h4.57l3-12.47,3.06,12.47h4.48l0-.17L338,293.15Z" transform="translate(-272.3 -249.31)"/><path class="cls-1" d="M296.54,310.13l2.6-3.12a9.21,9.21,0,0,0,6,2.43c1.8,0,2.89-.71,2.89-1.89v-.05c0-1.12-.69-1.69-4-2.55-4-1-6.64-2.15-6.64-6.13v-.05c0-3.64,2.92-6,7-6a11.61,11.61,0,0,1,7.44,2.54l-2.29,3.32a9.41,9.41,0,0,0-5.21-2c-1.69,0-2.58.77-2.58,1.74v.06c0,1.32.86,1.75,4.32,2.63,4.07,1.06,6.36,2.53,6.36,6v.05c0,4-3,6.22-7.36,6.22a12.73,12.73,0,0,1-8.5-3.21" transform="translate(-272.3 -249.31)"/><path class="cls-1" d="M306.25,288.56c-.08,0,1.26.31,1.26.59,7-.62,9.56,1.39,14.77,1.39,3.32,0,4.88-.75,5.15-2.28.41-3.31-4.72.11-14.78-1-.19-.55.65-.48,2-.5,12.08-.2,15.26-.94,20.45-3.18a11.8,11.8,0,0,0,3.19-2,5.19,5.19,0,0,0,.71-.7l.16-.17,0,0h0a1.65,1.65,0,0,0,.25-.86c0-.47,0-.95-.39-1.23l-.48-.34a44.15,44.15,0,0,0-5.93-3.64s0,0,.25-.46c3.71-4.72,4.06-7.47,4.1-7.9v-.06a1.56,1.56,0,0,0-1.44-1.55s-.83,0-2.23,0c-1.16,0-2.73.08-5,.27a1.31,1.31,0,0,1-.49-1.22c0-2-.12-3.81-.24-5.06s-.22-2-.22-2a1,1,0,0,0-.94-.91,1.14,1.14,0,0,0-.47.1l-.59.24c-1.05.46-3.14,1.56-6,2.7a31.79,31.79,0,0,0-1.86-6.35.94.94,0,0,0-1.09-.72,1,1,0,0,0-.43.17s-.78.47-2,1.35c-.87.63-1.95,1.45-3.15,2.46l-.55.36a33.22,33.22,0,0,1-2.09-3.3c-.41-.68-.75-1.21-1-1.58l-.33-.54c-.24-.35-.46-.45-.56-.45h0c-.1,0-.32.1-.55.45l-.33.54c-.23.37-.59.91-1,1.58a27.49,27.49,0,0,1-2.06,3.31l-.56-.37c-1.2-1-2.28-1.83-3.15-2.45-1.22-.89-2-1.35-2-1.36a.88.88,0,0,0-.42-.16.93.93,0,0,0-1.1.72,31.72,31.72,0,0,0-1.85,6.34c-2.88-1.14-5-2.23-6-2.7l-.58-.24a1.21,1.21,0,0,0-.47-.1,1,1,0,0,0-.94.91s-.12.72-.23,2-.23,3-.23,5.06a1.32,1.32,0,0,1-.5,1.22c-2.31-.19-3.87-.26-5-.27-1.39,0-2.23,0-2.23,0a1.55,1.55,0,0,0-1.43,1.54v.06c0,.43.38,3.18,4.09,7.9.28.44.27.45.25.47a43.42,43.42,0,0,0-5.92,3.63l-.49.34a1.4,1.4,0,0,0-.38,1.23,1.57,1.57,0,0,0,.25.86h0a.05.05,0,0,0,0,0s.08.09.15.18a6.24,6.24,0,0,0,.72.69,11.51,11.51,0,0,0,3.18,2.05c5.19,2.23,8.37,3,20.46,3.17,1.3,0,2.13-.05,1.95.5-10.07,1.14-15.2-2.28-14.78,1,.26,1.54,1.82,2.28,5.14,2.28,5.21,0,7.77-2,14.77-1.38,0-.29,1.35-.59,1.26-.6Z" transform="translate(-272.3 -249.31)"/><path class="cls-1" d="M290.19,291.32c-2.32,0-5.46-.3-5.91-2.93v0a2.11,2.11,0,0,1,.4-1.72h0a31.35,31.35,0,0,1-7.58-2.36,12.36,12.36,0,0,1-3.23-2l-.14-.13a6.43,6.43,0,0,1-.77-.72h-.06l-.24-.36a2.39,2.39,0,0,1-.37-1.28,2.11,2.11,0,0,1,.7-1.86l.51-.35.22-.16a44.52,44.52,0,0,1,5-3.14c-3.44-4.47-3.94-7.23-4-8v-.13a2.29,2.29,0,0,1,.38-1.28,2.32,2.32,0,0,1,1.79-1s.87,0,2.28,0,2.84.1,4.72.24a1.21,1.21,0,0,0,0-.38v0c0-2.39.15-4.25.24-5.14.11-1.25.22-2,.23-2a1.74,1.74,0,0,1,1.68-1.57h0a2,2,0,0,1,.76.15s.22.08.6.25l1.2.56c1,.48,2.32,1.11,3.94,1.78a32.18,32.18,0,0,1,1.69-5.54h0a1.69,1.69,0,0,1,1.63-1.24l.29,0a1.74,1.74,0,0,1,.74.28l.36.24c.35.22.93.61,1.67,1.15,1,.68,2,1.5,3.07,2.38a21,21,0,0,0,1.18-1.93l.4-.7c.24-.41.48-.77.66-1.06s.25-.38.34-.53c.22-.34.32-.53.33-.53l0,0a1.58,1.58,0,0,1,1.15-.79h.08a1.52,1.52,0,0,1,1.2.8l0,0s.11.19.32.52l.45.72c.15.26.33.54.53.86l.51.87c.32.55.66,1.15,1.09,1.77,1.05-.86,2.1-1.69,3.07-2.38.74-.54,1.32-.92,1.67-1.14h0l.36-.23a1.74,1.74,0,0,1,.74-.28l.3,0a1.71,1.71,0,0,1,1.63,1.23v0a31.56,31.56,0,0,1,1.7,5.54c1.6-.66,2.9-1.29,3.9-1.76.51-.25.91-.44,1.23-.58l.61-.26a2,2,0,0,1,.76-.15,1.75,1.75,0,0,1,1.7,1.55c0,.05.12.78.23,2,.09.88.24,2.73.24,5.13v0a.94.94,0,0,0,0,.38c1.87-.15,3.42-.23,4.71-.24s2.25,0,2.28,0a2.33,2.33,0,0,1,2.18,2.32v.13c-.07.75-.57,3.52-4,8a43.93,43.93,0,0,1,5,3.13l.24.17c.33.22.5.35.5.35a2.09,2.09,0,0,1,.71,1.86,2.31,2.31,0,0,1-.38,1.28l-.23.36h-.07a6.88,6.88,0,0,1-.77.72l-.14.12a11.83,11.83,0,0,1-3.22,2,31.51,31.51,0,0,1-7.58,2.37h0a2.1,2.1,0,0,1,.4,1.72v0c-.45,2.62-3.59,2.93-5.91,2.93a27.25,27.25,0,0,1-5.82-.73,29.25,29.25,0,0,0-6.35-.78c-.81,0-1.66,0-2.53.12l-.85.08v-.47l-.49-.16-.5.16V290l-.85-.08c-.88-.08-1.71-.11-2.53-.11a29.21,29.21,0,0,0-6.34.77,27.43,27.43,0,0,1-5.83.73m-4.37-3.17c.08.46.33,1.61,4.37,1.61a25.66,25.66,0,0,0,5.51-.7,31,31,0,0,1,6.66-.8c.75,0,1.51,0,2.3.09a3.66,3.66,0,0,1,.85-.38v-.09l.62-.09,0,.23v-.24h0l0,.5.08-.49.61.1V288a3.21,3.21,0,0,1,.86.38c.78-.06,1.56-.09,2.29-.09a31,31,0,0,1,6.66.8,25.66,25.66,0,0,0,5.51.7c4.05,0,4.3-1.15,4.38-1.61s0-.48,0-.48-.11-.12-.75-.12a21.81,21.81,0,0,0-2.42.23,50.91,50.91,0,0,1-6.5.47,38.18,38.18,0,0,1-4.4-.25l-.49-.05-.16-.47a1,1,0,0,1,.12-1c.38-.53,1.06-.54,2.1-.55h.45c12.3-.21,15.3-1,20.16-3.11a10.54,10.54,0,0,0,2.85-1.81l.14-.12a4.63,4.63,0,0,0,.62-.59v-.5h.26a.22.22,0,0,0,0-.08c0-.22,0-.55-.07-.6l-.46-.33-.26-.18a41.33,41.33,0,0,0-5.58-3.4l-.11-.06-.09-.09c-.47-.47-.14-1,.14-1.43l.05-.06c3.41-4.34,3.87-6.91,3.93-7.47h0a.71.71,0,0,0-.12-.41.77.77,0,0,0-.58-.36s-.83,0-2.18,0-3,.11-5,.27l-.31,0-.24-.19a2.05,2.05,0,0,1-.79-1.8v0a49.11,49.11,0,0,0-.24-5c-.1-1.22-.21-1.92-.21-1.93,0-.25-.12-.25-.2-.25l-.15,0-.57.23-1.18.56c-1.19.57-2.81,1.35-4.86,2.15l-.87.35-.18-.92a31.73,31.73,0,0,0-1.79-6.15.94.94,0,0,1,0-.09c-.08-.22-.14-.22-.17-.22h-.11a.21.21,0,0,0-.1,0h0l-.14.09c-.28.18-.92.59-1.81,1.23-.68.49-1.77,1.31-3.11,2.43l-.07.05L310,257l-.44-.57a22.16,22.16,0,0,1-1.64-2.54c-.17-.29-.33-.57-.49-.83s-.37-.6-.53-.85l-.45-.73-.23-.38-.24.39-.36.55-.63,1-.38.66a21.45,21.45,0,0,1-1.74,2.71l-.44.57-1.23-.81c-1.35-1.13-2.43-1.94-3.11-2.42-.87-.64-1.52-1.05-1.79-1.23l-.16-.1h0l-.09,0H296s-.1,0-.17.21l0,.09a32.79,32.79,0,0,0-1.79,6.15l-.18.92-.87-.34c-2.06-.82-3.69-1.6-4.89-2.17l-1.16-.54-.55-.24a.49.49,0,0,0-.17,0c-.08,0-.14,0-.19.27h0s-.1.71-.21,1.9c-.09.87-.23,2.66-.23,5v0a2,2,0,0,1-.8,1.8l-.24.19-.3,0c-2-.17-3.64-.26-5-.27s-2.17,0-2.18,0a.78.78,0,0,0-.57.35.72.72,0,0,0-.13.42v0c.07.55.52,3.12,3.94,7.46l0,.07c.29.45.62,1,.14,1.43l-.09.09-.11.05a42.07,42.07,0,0,0-5.59,3.41l-.23.17-.48.33c-.07.05-.07.38-.07.6,0,0,0,.06,0,.08h.24v.49h0a5,5,0,0,0,.61.59l.16.13a10.62,10.62,0,0,0,2.85,1.81c4.85,2.09,7.85,2.9,20.15,3.1h.45c1,0,1.73,0,2.11.55a1,1,0,0,1,.11,1l-.16.47-.49.06a40.23,40.23,0,0,1-4.39.25,50.64,50.64,0,0,1-6.5-.48,21.73,21.73,0,0,0-2.43-.23c-.64,0-.75.12-.75.12s-.07.1,0,.48m21.18.48h0a.81.81,0,0,0,0-.32v.31m-1.51-.31a.63.63,0,0,0,0,.31h0v-.13Z" transform="translate(-272.3 -249.31)"/><path class="cls-2" d="M286.16,255.72c-.41,0-.66.25-.75.74,0,0-.1.71-.21,1.94s-.23,2.89-.23,5c0,4.75.62,11.5,3.58,16.67,2.26,3.94,5.47,6.17,9,6.28a11.28,11.28,0,0,1-3.93-5.58,30.4,30.4,0,0,1-1.26-9.16,51.16,51.16,0,0,1,1.05-10.05s0-.05,0-.06a2.12,2.12,0,0,1,1-1.47,51.54,51.54,0,0,0-7.39-4c-.36-.17-.56-.24-.56-.24h0a1.09,1.09,0,0,0-.39-.08" transform="translate(-272.3 -249.31)"/><path class="cls-2" d="M317.21,261.26a.61.61,0,0,0-.31.13l-.31.27c-.21.16-.51.42-.92.78a40.75,40.75,0,0,0-3,2.95,28.52,28.52,0,0,0-6.07,10.07,21.5,21.5,0,0,0-1.11,6.27,7.41,7.41,0,0,0,.61,3.24,3.65,3.65,0,0,0,1.85,1.84,3.33,3.33,0,0,0,1.35.24h0c2.5,0,6.66-2.08,8.09-6.71a29.8,29.8,0,0,0,1.16-8.74,50.55,50.55,0,0,0-.85-9c-.1-.5-.16-.77-.16-.77-.06-.24-.18-.53-.39-.53" transform="translate(-272.3 -249.31)"/><path class="cls-2" d="M295.28,261.26c-.22,0-.35.29-.43.54l-.15.76c-.07.35-.21,1.08-.36,2.12a50.29,50.29,0,0,0-.51,6.92,28.74,28.74,0,0,0,1.18,8.72,9.5,9.5,0,0,0,8.29,6.73h0a3.58,3.58,0,0,0,1.41-.26,2.93,2.93,0,0,0,.64-.35,4.67,4.67,0,0,1-.51-.85,9.07,9.07,0,0,1-.77-3.86,24,24,0,0,1,1.2-6.69c.07-.23.15-.47.23-.69l.09-.28c-2.72-6.75-9-11.85-9.67-12.41l-.34-.27a.67.67,0,0,0-.32-.13" transform="translate(-272.3 -249.31)"/><path class="cls-2" d="M306.22,250.2c-.15,0-.3.12-.46.36,0,0-.13.18-.34.53-.31.52-.61,1-.91,1.56-.67,1.19-1.7,3.12-2.75,5.52-.72,1.64-1.38,3.34-2,5.07a33.26,33.26,0,0,1,6.55,9,33,33,0,0,1,6.31-8.89A63.15,63.15,0,0,0,307,251.09c-.23-.35-.34-.54-.34-.54-.22-.32-.4-.35-.45-.35" transform="translate(-272.3 -249.31)"/><path class="cls-2" d="M326.25,255.72a.91.91,0,0,0-.37.08h0s-.2.07-.56.23-.81.36-1.39.64l-.21.09a52.55,52.55,0,0,0-5.21,2.89l-.56.35a2.11,2.11,0,0,1,1.05,1.47.64.64,0,0,1,0,.07,51.72,51.72,0,0,1,1,10.05,31.31,31.31,0,0,1-1.22,9.16,11.28,11.28,0,0,1-3.85,5.58c3.52-.17,6.67-2.38,8.92-6.28,2.95-5.17,3.57-11.92,3.57-16.67,0-1.68-.08-3.36-.23-5-.11-1.21-.21-1.93-.21-1.93-.09-.48-.34-.72-.77-.73" transform="translate(-272.3 -249.31)"/><path class="cls-2" d="M316.48,251.7h-.15a.78.78,0,0,0-.33.14h0s-.78.48-2,1.33c-.66.48-1.71,1.26-3,2.33a63.64,63.64,0,0,1,2.49,5.89,51.48,51.48,0,0,1,5.13-3.52,51.14,51.14,0,0,0-1.4-5.53l0-.06a.77.77,0,0,0-.73-.6" transform="translate(-272.3 -249.31)"/><path class="cls-2" d="M296,251.7a.77.77,0,0,0-.73.6l0,.06a51.14,51.14,0,0,0-1.4,5.53,51.48,51.48,0,0,1,5.13,3.52,57.92,57.92,0,0,1,2.49-5.9c-1-.84-2-1.62-3-2.32-1.2-.85-2-1.33-2-1.33h0a.78.78,0,0,0-.33-.14H296" transform="translate(-272.3 -249.31)"/><path class="cls-2" d="M278.71,264.53c-1,0-1.64,0-1.64,0a1.38,1.38,0,0,0-1,.62,1.34,1.34,0,0,0-.21.76c.08.71.55,3.29,3.63,7.18,1.58-.78,3.15-1.47,4.67-2.05a46.7,46.7,0,0,1-.56-6.3c-1.88-.17-3.37-.22-4.29-.23h-.56" transform="translate(-272.3 -249.31)"/><path class="cls-2" d="M333.72,264.53h-.56c-.92,0-2.41.06-4.29.23a47.44,47.44,0,0,1-.56,6.3c1.52.58,3.09,1.26,4.67,2.05,3.09-3.9,3.56-6.48,3.63-7.19a1.44,1.44,0,0,0-.21-.75,1.38,1.38,0,0,0-1-.62s-.61,0-1.64,0" transform="translate(-272.3 -249.31)"/><path class="cls-2" d="M328.05,272.51a27.49,27.49,0,0,1-2.93,8.26,14.61,14.61,0,0,1-5.12,5.45c14.67-.8,18.81-5.52,19.24-6.06h0a1.25,1.25,0,0,0,.22-.72,1.35,1.35,0,0,0-.51-1.07l-.49-.33h0c-.23-.18-.57-.4-1-.68l-.35-.23a52.48,52.48,0,0,0-4.81-2.73,43.2,43.2,0,0,0-4.25-1.88" transform="translate(-272.3 -249.31)"/><path class="cls-2" d="M284.38,272.51A50.4,50.4,0,0,0,274,278a4.51,4.51,0,0,1-.47.33,1.38,1.38,0,0,0-.51,1.07,1.32,1.32,0,0,0,.21.72s0,0,0,0l.1.11.05.07a6.57,6.57,0,0,0,.71.66,14.16,14.16,0,0,0,3.51,2.13c3.69,1.68,8.81,2.73,14.85,3.07a14.79,14.79,0,0,1-5.12-5.46,27.59,27.59,0,0,1-2.93-8.26" transform="translate(-272.3 -249.31)"/><path class="cls-2" d="M326.21,287.29a29.71,29.71,0,0,0-3.54.39l-.79.1a19.31,19.31,0,0,1-2.82.16c-.73,0-1.48,0-2.28,0h-.08c-.76,0-1.62,0-2.48,0a23.8,23.8,0,0,0-6.17.65.23.23,0,0,0-.17.21c0,.07.14.09.24.09h.1c.81-.08,1.6-.11,2.34-.11a23.47,23.47,0,0,1,6.26.9,20.25,20.25,0,0,0,5.41.82c2.32,0,4.16-.5,4.92-1.32a1.19,1.19,0,0,0,.34-.91c-.06-.62-.26-.9-1.28-.9" transform="translate(-272.3 -249.31)"/><path class="cls-2" d="M286.21,287.29c-1,0-1.21.28-1.27.9a1.16,1.16,0,0,0,.33.9c.74.82,2.63,1.33,4.93,1.33a20.25,20.25,0,0,0,5.41-.82,23.54,23.54,0,0,1,6.26-.9c.74,0,1.53,0,2.34.11h.1c.1,0,.23,0,.24-.09a.23.23,0,0,0-.17-.21,23.76,23.76,0,0,0-6.17-.65h0c-.86,0-1.72,0-2.48,0h-.08c-.8,0-1.55,0-2.28,0a19.31,19.31,0,0,1-2.82-.16l-.81-.11a31,31,0,0,0-3.53-.38" transform="translate(-272.3 -249.31)"/><polygon class="cls-1" points="150.04 34.65 135.36 34.65 135.36 72.82 122.55 72.82 122.55 34.65 107.86 34.65 107.86 23.62 150.04 23.62 150.04 34.65"/><polygon class="cls-1" points="199.61 23.62 235.85 23.62 235.85 33.88 212.43 33.88 212.43 43.94 232.68 43.94 232.68 53.87 212.43 53.87 212.43 72.82 199.61 72.82 199.61 23.62"/><polygon class="cls-1" points="240.57 23.62 279.78 23.62 279.78 33.88 253.38 33.88 253.38 42.5 277.51 42.5 277.51 52.42 253.38 52.42 253.38 61.8 280.47 61.8 280.47 72.82 240.57 72.82 240.57 23.62"/><polygon class="cls-3" points="167.49 49.13 181.16 72.82 195.88 72.82 167.49 23.64 139.09 72.82 153.82 72.82 167.49 49.13"/><polygon class="cls-1" points="284.47 72.87 284.47 68.8 293.84 63.51 293.84 63.48 284.47 63.48 284.47 59.75 299.68 59.75 299.68 63.82 290.2 69.11 290.2 69.14 299.68 69.14 299.68 72.87 284.47 72.87"/><path class="cls-1" d="M566.87,303.26c1.78-.08,2.36-1.18,2.36-2.87,0-1.19-.42-2.43-1.55-2.43-1.35,0-1.6,2.18-2.22,4.36s-1.61,4.47-4.39,4.47c-3.32,0-4.62-3.35-4.62-6.21,0-3,1.47-6.07,4.9-6.09v4c-1.39-.06-1.84,1.24-1.84,2.45,0,.85.31,1.91,1.31,1.91,1.17,0,1.39-2.19,2-4.4s1.64-4.41,4.39-4.41c3.86,0,5.09,3.28,5.09,6.62,0,3.5-1.54,6.58-5.43,6.61Z" transform="translate(-272.3 -249.31)"/><polygon class="cls-1" points="299.68 27.87 299.68 31.84 289.2 33.93 289.2 33.97 299.68 36.06 299.68 40.09 284.47 44.2 284.47 40.24 295.6 38.09 295.6 38.04 284.47 35.8 284.47 32.08 295.6 29.84 295.6 29.8 284.47 27.64 284.47 23.68 299.68 27.87"/><path class="cls-1" d="M359.82,322.19a.64.64,0,0,1-.63-.64V256.32a.64.64,0,1,1,1.27,0v65.23a.64.64,0,0,1-.64.64" transform="translate(-272.3 -249.31)"/></svg>